<svg xmlns="http://www.w3.org/2000/svg" viewBox="0 0 692.9 723.5"><style/><path d="M604.5 259.7c-5.2 0-10.6-1-16-2.9-10.8-3.9-20.5-11.3-26.7-20.2-6.6-9.6-9.1-21.3-7-32.8 2.1-11.5 8.6-21.5 18.3-28.2 9.2-6.4 21.6-9.3 33.9-8 13.7 1.4 25.4 7.9 32.2 17.7 7.1 10.3 10.3 21.5 9.3 32.6-.9 9.7-5.6 23.8-22.8 35.6-6.2 4.1-13.5 6.2-21.2 6.2zm-3.5-55.5c-2.6 0-5.2.5-7.1 1.8-2 1.4-2.7 3.4-2.9 4.4-.2 1-.3 3.1 1.1 5.1 3.2 4.7 10.3 7.6 12.7 7.2 2.9-2 6.4-5.1 6.6-8.3.2-2.2-.9-5.2-2.9-8.2-.7-1.1-4-2-7.5-2zm-17.5-13.4zM565.2 139c-2 0-4-.1-6-.3-7.7-.7-15.5-2.7-23.2-5.8-29.2-12.1-47.4-37.8-45-63.9 1.6-17.7 12.6-35.5 29.4-47.6 16.7-12 36.1-16.5 53.3-12.5 36.9 8.8 59.6 37.1 56.6 70.6-3.1 33.9-31.7 59.5-65.1 59.5zm-4.1-94.5c-5.9 0-12.8 2.5-19 6.9-8 5.7-13.6 13.9-14.2 20.9-1 10.8 10.5 21.5 22.4 26.4 4.1 1.7 8.4 2.8 12.4 3.2 15.5 1.4 29.4-10.1 30.8-25.7 1.1-11.6-5.8-25.9-28.3-31.2-1.3-.3-2.7-.5-4.1-.5zM227.8 602.9c-1.5 0-3.1-.1-4.6-.2-18.5-1.3-33.7-10.2-42.7-25.2-8.4-14-10.4-30.6-5.7-46.7 5.2-17.8 17.9-32.8 34.8-41.2 13.3-6.6 29.4-6.1 45.3 1.6 13.2 6.4 24.5 16.9 31.1 28.9 6.9 12.7 8.5 27.2 4.4 41.1-4.1 13.8-13.3 25.3-25.9 32.2-11.1 6.2-24.2 9.5-36.7 9.5zm1.9-80.8c-1.4 0-2.6.2-3.5.7-7.6 3.8-13.5 10.7-15.8 18.4-1.3 4.3-2 10.8 1.9 17.3 7.2 12 26.8 6.7 34.6 2.5 4-2.2 6.9-5.8 8.2-10.1s.8-8.9-1.4-12.9c-5.1-9.3-16.7-15.9-24-15.9zm119.5-34.8c-6.8 0-13.6-1-20.4-2.9-22-6.5-38.9-19.7-47.5-37.2-5.5-11.2-10.1-29.7-.8-53.7 16.1-41.2 49.3-58.9 88.8-47.3 18.5 5.4 33.7 17.7 42.9 34.6 9.2 16.9 11.3 36.3 5.9 54.8s-17.7 33.7-34.6 42.9c-10.6 5.9-22.4 8.8-34.3 8.8zm-2.8-107.6c-10.9 0-22.9 5.5-31.4 27.3-3.6 9.2-3.8 17.3-.5 23.9 3.9 8 12.9 14.5 24.7 18 9 2.6 18.4 1.6 26.6-2.9s14.2-11.9 16.8-20.9 1.6-18.4-2.9-26.6-11.9-14.2-20.9-16.8c-3.7-1.1-8-2-12.4-2zm178.9 127.4c-3.6 0-7.3-.5-11-1.4-14.2-3.5-27.2-13.9-34.8-27.8-12.9-23.6-4.2-53.3 19.4-66.3 24.8-13.5 50-8 65.9 14.3 9.1 12.9 12.6 26.7 10 40.1-1.8 9.3-7.5 22.5-24.4 33.3-7.8 5.2-16.4 7.8-25.1 7.8zm-.1-65.9c-2.8 0-5.6 1.3-8.5 2.9-5.7 3.1-7.8 10.3-4.7 16 2.6 4.8 7.1 8.6 11.2 9.7 2.4.6 4.5.2 7-1.5.1-.1.2-.1.3-.2 3.3-2.1 7.3-5.3 8.1-9.3.8-4.2-2-9-3.8-11.5-3.4-4.5-6.5-6.1-9.6-6.1zm-362-44.2c-5.1 0-10.2-.7-15.3-2.2-13.8-4.1-25.3-13.3-32.2-25.9-6.9-12.6-9.5-27-7.2-40.5 2.6-16 11.8-29.4 25.8-37.5 12-6.9 25.2-8.6 38.4-4.9 15.3 4.3 29.4 15.9 37.7 31.1 14.3 26.1 4.6 59-21.5 73.3-8 4.4-16.8 6.6-25.7 6.6zm-3.9-75.9c-2.2 0-4.3.6-6.4 1.8-11.2 6.5-8.9 20.4-4.7 28.2 2.2 4 5.8 6.9 10.1 8.2s8.9.8 12.9-1.4c8.2-4.5 11.3-14.8 6.8-23.1-3.5-6.5-9.5-11.7-15.2-13.3-1.2-.3-2.4-.4-3.5-.4zM318.4 284c-17.1 0-34-6.7-46.9-19.7-15.2-15.2-21.9-34.7-18.4-53.4 3.5-19 17.1-35.1 37.3-44.1 15.6-6.9 33.1-6.6 49.5 1 13.8 6.4 25.8 17.5 32.9 30.6 7.3 13.4 9 28.8 4.7 43.4-4.3 14.6-14 26.7-27.4 34-10.1 5.6-20.9 8.2-31.7 8.2zm-4.7-85c-2.8 0-5.6.5-8.4 1.8-9 4-14.7 10-16 17-1.2 6.7 1.7 13.9 8.2 20.5 9.3 9.3 23.3 11.4 34.7 5.2 4.7-2.6 8.1-6.8 9.6-12s.9-10.6-1.6-15.3c-4.5-8.4-15.2-17.2-26.5-17.2z"/><path d="M343.8 712.8c-34.3 0-68.3-5.3-101.6-15.7-43.5-13.7-83-35.6-117.5-64.9-33.3-28.3-60.4-62.5-80.7-101.4-20.3-38.9-32.6-80.7-36.8-124.2-4.3-45.1.5-90 14.2-133.5s35.6-83 64.9-117.5c28.3-33.3 62.5-60.4 101.4-80.7 38.9-20.3 80.7-32.6 124.2-36.8 45.1-4.3 90 .5 133.5 14.2.4.1.6.2.9.3 4.8 1.6 8.7 5.1 10.8 9.6 2.2 4.6 2.4 9.9.6 14.6-.1.4-.2.6-.4.9-2.5 6.3-8.2 10.8-15 11.6-16.7 2-30.1 14.3-33.5 30.5-4.3 20.7 8.9 41 29.4 45.7.6 0 1.3.1 2.2.3 6.6 1.1 12.1 5.8 14.3 12.1l.1.3c.2.6.6 1.4.9 2.4 2.9 8.2-.3 17.3-7.7 21.9-10.8 6.7-18.1 17.1-20.6 29.2-2.4 11.8-.1 23.9 6.5 34 6.7 10.1 16.8 17 28.7 19.4 16.5 3.4 33.5-2.8 44.2-16.2 5.4-6.7 14.6-8.8 22.3-5.2l.6.3c6.3 3.1 10.2 9.4 10.4 16.1 1.1 4.8 10.9 41.7 48.2 41.7 23 0 41.9-23.8 45.3-31.6.7-7.9 6.5-14.7 14.7-16.4 9.6-2 19.1 3.8 21.6 13.3 16.7 62.3 15.4 127.7-4 189-13.7 43.5-35.6 83-64.9 117.5-28.3 33.3-62.5 60.4-101.4 80.7-38.9 20.3-80.7 32.6-124.2 36.8-10.4 1.2-21 1.7-31.6 1.7zm-.2-639.2c-47.7 0-95.1 11.5-138.6 34.2-71.4 37.1-124 99.7-148.2 176.4s-17 158.2 20.1 229.5C114 585 176.7 637.6 253.4 661.8c29.9 9.4 60.4 14.1 90.9 14.1 47.7 0 95.1-11.5 138.6-34.1C554.2 604.7 606.8 542 631 465.3c13.1-41.5 17-85.1 11.5-128-12.1 10.3-30.7 21.7-53.8 21.7-28 0-51.5-12-68-34.8-3-4.2-5.5-8.4-7.6-12.3-17.1 10-37.5 13.6-57.6 9.5-21.5-4.4-40-17-52.1-35.3s-16.3-40.3-11.9-61.8c2.5-12.1 7.5-23.2 14.7-32.7-25.6-16.5-39.9-47.6-33.4-79.2 2.8-13.4 9-25.4 17.7-35.2-15.6-2.4-31.3-3.6-46.9-3.6zm290.5 221.3zm-94.6-8.3c0 .1 0 .1 0 0 0 .1 0 .1 0 0zm0 0zm-9.7-22.5zM455 178.3z"/></svg>